<?xml version="1.0" encoding="utf-8"?>
<!-- Generator: Adobe Illustrator 24.2.1, SVG Export Plug-In . SVG Version: 6.00 Build 0)  -->
<svg version="1.1" id="图层_1" xmlns="http://www.w3.org/2000/svg" xmlns:xlink="http://www.w3.org/1999/xlink" x="0px" y="0px"
	 viewBox="0 0 500 300" style="enable-background:new 0 0 500 300;" xml:space="preserve">
<a xlink:href="https://blog.wr0926.ml" target="_parent">
<style type="text/css">
	.st0{fill:#E0E0E0;}
	.st1{fill:none;}
</style>
<rect class="st0" width="500" height="300"/>
<g>
	<rect y="44.29" class="st1" width="500" height="219.79"/>
	<path d="M186.08,119.68c2.95,0,5.44,1.02,7.48,3.06c2.04,2.04,3.06,4.53,3.06,7.48v54.57c0,2.83-1.02,5.27-3.06,7.31
		c-2.04,2.04-4.53,3.06-7.48,3.06H96.66c-2.95,0-5.44-1.02-7.48-3.06s-3.06-4.48-3.06-7.31V69.71c0-2.95,1.02-5.44,3.06-7.48
		s4.53-3.06,7.48-3.06h83.64c2.83,0,5.16,1.1,6.97,3.31c1.81,2.21,2.49,4.73,2.04,7.56l-8.84,49.64H186.08z M116.72,68.69
		c-1.13,0-2.04,0.4-2.72,1.19c-0.68,0.79-1.02,1.7-1.02,2.72v47.09h41.65l7.99-47.26c0.23-0.91,0.03-1.76-0.59-2.55
		c-0.62-0.79-1.45-1.19-2.47-1.19H116.72z M170.61,132.95c0-1.02-0.34-1.9-1.02-2.64c-0.68-0.74-1.59-1.1-2.72-1.1h-53.89v52.53
		c0,1.02,0.34,1.93,1.02,2.72c0.68,0.79,1.59,1.19,2.72,1.19h50.15c1.13,0,2.04-0.4,2.72-1.19c0.68-0.79,1.02-1.7,1.02-2.72V132.95z
		"/>
	<path d="M213.28,195.17V65.96h26.86v129.2H213.28z"/>
	<path d="M249.83,110.17c0-2.83,0.99-5.24,2.98-7.23c1.98-1.98,4.39-2.98,7.22-2.98h63.75c2.95,0,5.44,0.99,7.48,2.98
		c2.04,1.98,3.06,4.39,3.06,7.23v74.46c0,2.95-1.02,5.44-3.06,7.48s-4.53,3.06-7.48,3.06h-63.75c-2.83,0-5.24-1.02-7.22-3.06
		c-1.98-2.04-2.98-4.53-2.98-7.48V110.17z M276.69,182.08c0,0.91,0.34,1.73,1.02,2.46c0.68,0.74,1.53,1.11,2.55,1.11h23.29
		c1.25,0,2.21-0.37,2.89-1.11c0.68-0.74,1.02-1.56,1.02-2.46v-69.02c0-0.91-0.34-1.73-1.02-2.46c-0.68-0.74-1.64-1.1-2.89-1.1
		h-23.29c-1.02,0-1.87,0.37-2.55,1.1c-0.68,0.74-1.02,1.56-1.02,2.46V182.08z"/>
	<path d="M415.41,99.96c3.29,0,6.06,1.13,8.33,3.4c2.27,2.27,3.4,5.04,3.4,8.33v105.4c0,3.29-1.13,6.12-3.4,8.5
		c-2.27,2.38-5.04,3.57-8.33,3.57h-68l-5.1-9.52h53.72c1.13,0,2.13-0.43,2.98-1.28c0.85-0.85,1.27-1.9,1.27-3.15v-33.66h-42.5
		c-3.29,0-6.12-1.19-8.5-3.57s-3.57-5.21-3.57-8.5v-57.8c0-3.29,1.19-6.06,3.57-8.33c2.38-2.27,5.21-3.4,8.5-3.4H415.41z
		 M400.28,171.71v-57.8c0-1.25-0.42-2.29-1.27-3.15c-0.85-0.85-1.84-1.27-2.98-1.27h-18.87c-1.25,0-2.32,0.42-3.23,1.27
		c-0.91,0.85-1.36,1.9-1.36,3.15v53.38c0,1.25,0.45,2.29,1.36,3.14c0.91,0.85,1.98,1.28,3.23,1.28H400.28z"/>

</g>
<g>
</g>
<g>
</g>
<g>
</g>
<g>
</g>
<g>
</g>
<g>
</g>
</a>
</svg>
