<?xml version="1.0" encoding="utf-8"?>
<!-- Generator: Adobe Illustrator 21.1.0, SVG Export Plug-In . SVG Version: 6.00 Build 0)  -->
<svg version="1.1" id="图层_1" xmlns="http://www.w3.org/2000/svg" xmlns:xlink="http://www.w3.org/1999/xlink" x="0px" y="0px"
	 viewBox="0 0 195.5 219.6" enable-background="new 0 0 195.5 219.6" xml:space="preserve">
<path fill="none" d="M182.3,205.4h-169c-6.6,0-12-5.4-12-12v-169c0-6.6,5.4-12,12-12h169c6.6,0,12,5.4,12,12v169
	C194.3,200,188.9,205.4,182.3,205.4z"/>
<g>
	<rect x="7.1" y="19.8" fill="none" width="178.9" height="178.5"/>
	<path d="M32.1,180.1V46.7c0-3.6,1.3-6.7,3.8-9.2c2.5-2.5,5.6-3.8,9.2-3.8h57.6v-0.1c14.4,0,26.8,5.1,37,15.3
		c10.2,10.3,15.3,22.6,15.3,37c0,10.1-2.8,19.5-8.3,28.1c-5.4,8.3-12.6,14.6-21.5,18.9l37.4,47.3h-33.1l-33.1-41.9H58v41.9H32.1z
		 M58,112.3h44.6c7.3,0,13.5-2.6,18.7-7.8c5.2-5.2,7.8-11.4,7.8-18.6c0-7.3-2.6-13.5-7.8-18.7c-5.2-5.2-11.4-7.8-18.7-7.8v0.1H58
		V112.3z"/>
</g>
<g>
</g>
<g>
</g>
<g>
</g>
<g>
</g>
<g>
</g>
<g>
</g>
<g>
</g>
<g>
</g>
<g>
</g>
<g>
</g>
<g>
</g>
</svg>
