<?xml version="1.0" encoding="utf-8"?>
<!-- Generator: Adobe Illustrator 21.1.0, SVG Export Plug-In . SVG Version: 6.00 Build 0)  -->
<svg version="1.1" id="图层_1" xmlns="http://www.w3.org/2000/svg" xmlns:xlink="http://www.w3.org/1999/xlink" x="0px" y="0px"
	 viewBox="0 0 126 38.4" enable-background="new 0 0 126 38.4" xml:space="preserve">
<g>
	<rect fill="none" width="126" height="31"/>
	<path opacity="0.85" d="M39,5.4l-8.6,24.3c-0.2,0.6-0.7,1-1.4,1c-0.7,0-1.1-0.3-1.4-1l-6.5-18.5l-6.5,18.5
		c-0.2,0.6-0.7,0.9-1.4,0.9s-1.2-0.3-1.4-0.9L3.4,5.4h3.1l6.9,19.4l6.5-18.5c0.2-0.6,0.7-0.9,1.4-0.9s1.2,0.3,1.4,0.9l6.5,18.5
		l6.9-19.4H39z"/>
	<path opacity="0.85" fill="#808080" d="M42,28.4c-1.5-1.5-2.2-3.3-2.2-5.4c0-2.1,0.7-3.9,2.2-5.4c1.5-1.5,3.3-2.3,5.4-2.3
		c1.4,0,2.7,0.4,3.9,1.1c1.2,0.7,2.2,1.7,2.8,3c0.1,0.3,0.2,0.6,0.1,0.9c-0.1,0.3-0.3,0.6-0.6,0.7l-10.2,5.5c1,1.2,2.4,1.8,3.9,1.8
		c1.2,0,2.2-0.3,3.1-1c0.9-0.7,1.5-1.6,1.9-2.7l2.3,0.7c-0.5,1.6-1.4,2.9-2.8,3.9c-1.3,1-2.9,1.5-4.6,1.5
		C45.3,30.6,43.5,29.9,42,28.4z M43.7,19.3c-1,1-1.5,2.3-1.5,3.7c0,0.5,0.1,0.9,0.2,1.4l9-4.8c-1-1.2-2.4-1.8-4-1.8
		C45.9,17.7,44.7,18.2,43.7,19.3z"/>
	<path opacity="0.85" fill="#808080" d="M56,15.3h2.4v15.3H56V15.3z"/>
	<path opacity="0.85" d="M68.3,30.6V6.8c0-0.4,0.1-0.7,0.4-1s0.6-0.4,1-0.4h10.7v0c2.4,0,4.5,0.9,6.2,2.6c1.7,1.7,2.5,3.8,2.5,6.2
		c0,1.9-0.6,3.7-1.7,5.2c-1.1,1.5-2.6,2.5-4.4,3.1l6.5,8.2h-3.7l-6.1-7.8h-8.5v7.8H68.3z M71.2,20h9.2c1.6,0,3-0.6,4.1-1.7
		c1.1-1.1,1.7-2.5,1.7-4.1c0-1.6-0.6-3-1.7-4.1c-1.1-1.1-2.5-1.7-4.1-1.7v0h-9.2V20z"/>
	<path opacity="0.85" fill="#808080" d="M106.7,30.6h-2.4v-2.1c-1.5,1.4-3.2,2.1-5.2,2.1c-2.1,0-3.9-0.7-5.4-2.2s-2.2-3.3-2.2-5.4
		s0.7-3.9,2.2-5.4c1.5-1.5,3.3-2.3,5.4-2.3c2.1,0,3.9,0.8,5.4,2.3c1.5,1.5,2.2,3.3,2.2,5.4V30.6z M95.3,19.3c-1,1-1.5,2.3-1.5,3.7
		s0.5,2.7,1.5,3.7s2.3,1.5,3.7,1.5c1.4,0,2.7-0.5,3.7-1.5s1.5-2.3,1.5-3.7s-0.5-2.7-1.5-3.7c-1-1-2.3-1.6-3.7-1.6
		C97.6,17.7,96.3,18.2,95.3,19.3z"/>
	<path opacity="0.85" fill="#808080" d="M115.5,15.3c1.9,0,3.6,0.7,5,2.1c1.4,1.4,2.1,3,2.1,5v8.3h-2.4v-8.3c0-1.3-0.5-2.4-1.4-3.3
		c-0.9-0.9-2-1.3-3.3-1.3s-2.4,0.4-3.3,1.3c-0.9,0.9-1.3,2-1.3,3.3v8.3h-2.4V15.3h2.4v1.8C112.2,15.9,113.7,15.3,115.5,15.3z"/>
</g>
<g>
</g>
<g>
</g>
<g>
</g>
<g>
</g>
<g>
</g>
<g>
</g>
<g>
</g>
<g>
</g>
<g>
</g>
<g>
</g>
<g>
</g>
</svg>
